<!DOCTYPE svg PUBLIC "-//W3C//DTD SVG 20010904//EN" "http://www.w3.org/TR/2001/REC-SVG-20010904/DTD/svg10.dtd">
<svg version="1.0" xmlns="http://www.w3.org/2000/svg" width="900px" height="230px" viewBox="0 0 9000 2300" preserveAspectRatio="xMidYMid meet">
<g id="layer101" fill="#7c4b0c" stroke="none">
<path d="M0 1150 l0 -1150 4500 0 4500 0 0 1150 0 1150 -4500 0 -4500 0 0 -1150z"/>
</g>
<g id="layer102" fill="#c17514" stroke="none">
<path d="M2 2158 c1 -108 3 -128 8 -83 l7 60 1 -66 c2 -50 6 -68 18 -73 8 -3 12 -11 8 -17 -4 -8 -3 -9 5 -5 6 4 9 12 5 17 -3 6 5 8 21 6 15 -2 30 -9 34 -16 6 -10 10 -9 14 3 3 8 1 18 -5 22 -7 5 -8 2 -3 -6 6 -9 4 -11 -4 -6 -14 9 -8 19 13 22 9 1 13 -6 12 -20 -3 -21 1 -22 58 -21 34 1 66 -2 72 -7 7 -5 17 -1 25 9 13 16 12 17 -3 5 -10 -8 -19 -9 -22 -3 -4 5 -15 8 -25 6 -10 -2 -18 3 -18 11 0 9 4 11 12 4 7 -6 16 -5 25 3 9 8 11 8 6 0 -4 -8 15 -11 73 -9 77 2 79 1 69 -19 -10 -18 -10 -19 5 -6 14 11 17 11 17 0 0 -11 2 -11 10 1 5 8 10 11 10 6 0 -5 7 -3 15 4 8 7 15 9 15 5 0 -4 8 -1 18 6 15 13 16 12 3 -3 -7 -10 -10 -18 -6 -18 5 0 18 8 29 18 20 16 20 16 7 0 -15 -19 -2 -25 16 -7 8 8 13 8 17 0 4 -6 12 -11 17 -11 6 0 8 4 5 9 -4 5 3 7 13 4 10 -3 28 0 40 6 14 8 21 8 21 1 0 -5 -7 -10 -15 -10 -9 0 -16 -10 -16 -27 -2 -24 -2 -25 -6 -5 -2 12 -11 22 -19 22 -8 0 -19 -10 -24 -22 -7 -19 -9 -20 -9 -4 -1 12 -6 16 -16 12 -9 -3 -56 -11 -106 -17 -70 -9 -92 -16 -100 -30 -8 -16 -17 -18 -50 -13 -22 4 -50 2 -62 -4 -27 -13 -80 -23 -132 -25 -22 -1 -45 -9 -52 -17 -9 -10 -12 -11 -13 -2 0 6 -9 12 -20 12 -20 0 -20 -7 -20 -930 l0 -930 4500 0 4500 0 0 805 c0 770 -1 805 -18 805 -20 0 -62 -35 -62 -51 0 -20 -24 -2 -30 22 -7 28 25 25 -380 33 -157 4 -318 9 -359 13 l-74 6 26 -35 27 -35 -25 -11 c-35 -16 -45 -15 -45 4 0 8 -4 13 -8 10 -4 -2 -13 4 -20 14 -9 14 -8 21 3 30 8 7 15 16 15 20 0 4 -69 10 -152 14 -84 4 -166 9 -183 11 -105 13 -138 19 -205 40 -41 13 -113 31 -160 40 -84 15 -459 65 -492 65 -13 0 -18 -11 -21 -47 l-3 -48 -2 48 c-2 42 -4 47 -25 47 -13 0 -56 11 -95 25 -39 14 -79 25 -87 25 -9 0 -29 7 -45 15 -24 12 -48 13 -142 6 -97 -8 -120 -7 -165 8 -34 12 -89 18 -162 20 l-110 2 -4 -88 -3 -88 -2 89 -2 89 -186 -7 c-103 -3 -194 -11 -203 -17 -14 -9 -14 -10 1 -5 10 3 20 1 23 -5 4 -5 -8 -12 -25 -15 -17 -4 -33 -11 -36 -15 -8 -13 -42 -11 -47 4 -4 10 -7 10 -18 0 -18 -18 -39 -16 -39 3 0 9 -5 14 -12 12 -7 -3 -11 -26 -10 -63 0 -33 -4 -66 -8 -75 -6 -10 -9 11 -10 59 0 58 -3 72 -14 68 -7 -3 -34 -9 -60 -12 -25 -4 -49 -11 -52 -16 -3 -5 -16 -9 -30 -9 -14 0 -27 -7 -30 -15 -4 -8 -12 -15 -19 -15 -7 0 -16 -7 -19 -16 -4 -11 -12 -14 -24 -9 -9 4 -26 7 -37 7 -11 -1 -27 6 -36 14 -11 10 -19 12 -23 5 -4 -7 -15 -7 -31 -1 -21 8 -24 6 -27 -17 -2 -22 -12 -29 -58 -45 -44 -15 -70 -17 -132 -12 -68 6 -78 5 -78 -10 0 -9 -15 -24 -34 -33 -32 -15 -37 -15 -60 0 -14 10 -32 17 -40 17 -7 0 -14 6 -13 13 2 62 -4 75 -39 92 -33 15 -37 15 -53 1 -11 -10 -25 -14 -35 -10 -12 5 -19 0 -23 -14 -5 -21 -33 -39 -33 -22 0 6 -9 19 -21 31 -15 15 -28 19 -48 14 -24 -5 -29 -2 -34 16 -5 18 -9 20 -20 10 -19 -15 -40 -6 -52 22 -6 12 -18 22 -27 22 -9 0 -20 4 -24 8 -4 4 -16 7 -26 7 -14 0 -18 5 -13 19 4 13 0 20 -15 24 -12 3 -18 11 -15 19 3 7 -7 27 -22 44 -25 28 -46 36 -213 77 -344 86 -380 90 -840 92 -223 2 -479 8 -570 14 -423 30 -880 79 -1048 114 -103 20 -134 21 -769 24 l-663 3 2 -142z m167 -145 c-4 -22 2 -25 14 -8 11 14 16 15 22 5 5 -9 4 -11 -3 -6 -7 4 -12 3 -12 -3 0 -5 6 -11 13 -14 6 -2 -2 -4 -19 -3 -29 1 -33 6 -25 34 2 6 11 1 10 -5z m651 -13 c0 -13 -6 -20 -17 -19 -11 0 -13 3 -5 6 6 2 12 11 12 19 0 8 2 14 5 14 3 0 5 -9 5 -20z m42 -17 c-5 -59 -10 -63 -11 -10 -1 26 3 47 7 47 4 0 6 -17 4 -37z m-164 14 c-9 -7 -18 -26 -21 -42 l-4 -30 -2 32 c0 21 5 35 17 42 24 14 30 13 10 -2z m79 -54 c-2 -16 -4 -5 -4 22 0 28 2 40 4 28 2 -13 2 -35 0 -50z m-50 5 c-2 -13 -4 -5 -4 17 -1 22 1 32 4 23 2 -10 2 -28 0 -40z m190 -5 c-3 -10 -5 -2 -5 17 0 19 2 27 5 18 2 -10 2 -26 0 -35z m-467 -253 c-6 -11 -22 -23 -35 -26 -13 -3 -29 -12 -36 -20 -6 -8 -21 -14 -33 -14 -20 1 -20 2 -3 14 21 16 22 26 2 26 -8 0 -15 3 -15 8 0 4 18 6 39 4 26 -3 48 2 63 12 29 21 31 20 18 -4z m1615 11 c-5 -8 -62 -41 -71 -41 -2 0 -1 7 2 15 4 8 14 15 24 15 11 0 22 5 25 10 3 6 11 10 16 10 6 0 8 -4 4 -9z m-598 -276 c12 -27 5 -33 -15 -13 -10 10 -14 10 -21 0 -4 -7 -25 -15 -47 -18 l-39 -6 33 21 c17 11 32 25 32 31 0 21 45 10 57 -15z m453 -131 c0 -11 -65 -64 -78 -64 -11 0 -12 3 -3 14 9 11 9 15 -1 19 -7 3 -1 6 14 6 15 1 33 8 40 16 13 14 28 20 28 9z m333 -58 c4 -10 1 -13 -7 -10 -8 3 -17 1 -21 -5 -3 -6 -15 -11 -27 -11 -19 0 -19 1 3 20 29 23 45 25 52 6z m-902 -113 c-11 -20 -48 -55 -71 -68 -12 -6 -13 -5 -2 6 17 18 15 29 -5 30 -10 1 -1 6 20 11 21 6 41 17 44 24 3 8 9 14 14 14 6 0 6 -7 0 -17z"/>
<path d="M3 1940 c0 -41 2 -58 4 -37 2 20 2 54 0 75 -2 20 -4 3 -4 -38z"/>
</g>
<g id="layer103" fill="#fa9722" stroke="none">
<path d="M1723 2213 c9 -2 25 -2 35 0 9 3 1 5 -18 5 -19 0 -27 -2 -17 -5z"/>
<path d="M1903 2193 c9 -2 25 -2 35 0 9 3 1 5 -18 5 -19 0 -27 -2 -17 -5z"/>
<path d="M2008 2183 c12 -2 30 -2 40 0 9 3 -1 5 -23 4 -22 0 -30 -2 -17 -4z"/>
<path d="M2118 2173 c12 -2 30 -2 40 0 9 3 -1 5 -23 4 -22 0 -30 -2 -17 -4z"/>
<path d="M2238 2163 c12 -2 30 -2 40 0 9 3 -1 5 -23 4 -22 0 -30 -2 -17 -4z"/>
<path d="M2358 2153 c12 -2 32 -2 45 0 12 2 2 4 -23 4 -25 0 -35 -2 -22 -4z"/>
<path d="M2518 2143 c12 -2 30 -2 40 0 9 3 -1 5 -23 4 -22 0 -30 -2 -17 -4z"/>
<path d="M2727 2133 c18 -2 50 -2 70 0 21 2 7 4 -32 4 -38 0 -55 -2 -38 -4z"/>
<path d="M4300 1807 c-3 -3 -32 -8 -65 -11 -73 -7 -186 -37 -269 -73 -48 -20 -85 -27 -171 -33 -112 -6 -137 -13 -168 -48 -14 -15 -32 -20 -76 -21 -31 0 -76 -7 -99 -15 -24 -9 -40 -11 -36 -5 8 13 -28 8 -38 -6 -5 -6 -12 -4 -18 5 -9 13 -11 13 -20 0 -9 -13 -11 -13 -20 0 -5 8 -10 10 -10 4 0 -7 -15 -11 -35 -11 -22 1 -35 6 -35 14 0 9 -8 11 -25 7 -34 -8 -95 -8 -129 1 -23 6 -32 4 -43 -11 -9 -12 -16 -15 -21 -8 -11 17 -60 26 -65 11 -3 -9 -8 -9 -21 2 -14 12 -18 12 -30 -4 -13 -18 -14 -17 -29 12 -27 51 -91 58 -146 14 -36 -29 -36 -29 -60 -10 -13 10 -18 19 -12 19 17 0 13 17 -5 24 -9 4 -23 1 -30 -5 -11 -9 -18 -8 -29 1 -13 11 -18 10 -30 -6 -11 -15 -17 -17 -32 -7 -10 6 -17 16 -15 22 3 15 -14 14 -38 -1 -14 -9 -23 -10 -28 -3 -4 6 -38 11 -76 12 -59 1 -69 -2 -73 -18 -7 -24 -23 -15 -23 13 0 15 -5 19 -20 15 -10 -3 -21 0 -24 7 -3 7 -9 5 -16 -6 -15 -24 -26 -23 -34 5 l-7 22 -9 -22 c-12 -28 -30 -30 -30 -3 0 23 -15 27 -24 5 -9 -24 -23 -17 -29 14 -6 29 -7 29 -94 37 -161 14 -367 0 -618 -42 -166 -27 -197 -36 -192 -54 4 -17 -39 -44 -48 -29 -3 4 -12 6 -19 3 -8 -3 -17 -1 -20 5 -4 6 -20 8 -36 4 -26 -5 -30 -2 -30 16 0 11 -3 21 -6 21 -3 0 -68 14 -145 30 -129 29 -141 30 -171 16 -34 -16 -95 -19 -103 -5 -3 4 -21 6 -40 4 -23 -2 -35 1 -35 10 0 7 -7 19 -16 26 -14 11 -16 10 -12 -11 2 -17 -2 -25 -12 -25 -8 0 -23 -12 -33 -27 -11 -16 -24 -28 -31 -28 -6 0 -23 -8 -36 -17 -28 -20 -70 -28 -70 -14 0 5 7 11 15 15 8 3 15 9 15 15 0 17 -43 19 -113 5 -42 -9 -107 -14 -155 -12 l-82 3 1 -80 c0 -54 3 -74 9 -60 8 18 9 17 9 -7 1 -19 7 -28 24 -31 16 -3 13 -5 -10 -6 l-33 -1 0 -735 0 -735 4500 0 4500 0 0 800 c0 779 -1 800 -19 800 -10 0 -29 -11 -42 -25 -30 -31 -47 -32 -55 0 -9 38 -22 30 -27 -17 l-4 -43 -1 43 -2 42 -112 0 c-133 0 -541 17 -613 25 -49 6 -50 6 -28 -12 33 -27 33 -54 1 -65 -23 -8 -32 -5 -55 16 -24 22 -26 29 -16 45 11 18 8 20 -45 25 -31 3 -103 8 -159 12 l-103 6 0 -41 c0 -54 -18 -53 -22 2 l-3 42 -60 7 c-34 3 -88 16 -120 27 -81 29 -190 48 -445 80 l-215 28 -3 -49 c-4 -61 -22 -63 -22 -3 0 44 0 44 -26 35 -34 -13 -130 -13 -174 1 -19 6 -123 12 -230 14 -192 3 -196 3 -295 -27 -55 -17 -102 -33 -105 -38 -3 -4 -12 -7 -20 -8 -19 0 -76 -20 -113 -38 -16 -8 -35 -14 -43 -14 -8 0 -25 -6 -37 -14 -25 -17 -109 -6 -160 20 -20 11 -32 12 -41 5 -12 -10 -82 5 -125 29 -19 9 -21 8 -21 -15 0 -14 -4 -25 -10 -25 -5 0 -10 11 -10 24 0 21 -4 23 -41 20 -23 -2 -47 -9 -55 -15 -7 -6 -22 -8 -34 -4 -12 4 -20 2 -20 -4 0 -18 -127 -4 -197 20 l-61 22 -59 -21 c-46 -18 -68 -21 -108 -14 -61 9 -95 5 -95 -12 0 -13 -40 -36 -62 -36 -6 0 -29 8 -50 17 -29 13 -38 23 -40 42 -2 45 -3 48 -17 64 -9 11 -23 15 -44 11 -18 -3 -40 -6 -51 -7 -10 -1 -25 -12 -33 -24 -16 -24 -43 -31 -43 -12 0 7 -9 20 -21 30 -16 14 -26 16 -46 8 -32 -12 -31 -12 -35 12 -2 11 -5 19 -8 16z m-2226 -102 c-7 -17 -69 -55 -91 -55 -13 0 -13 3 -3 15 9 10 9 15 1 15 -6 0 -11 5 -11 10 0 6 18 10 39 10 22 0 43 5 46 10 10 16 25 12 19 -5z m2301 -75 c4 -6 15 -8 24 -5 10 3 30 -1 46 -9 15 -8 34 -12 41 -9 8 3 25 -2 38 -10 13 -9 27 -13 31 -9 11 11 39 8 51 -7 8 -11 15 -11 33 -2 19 11 22 10 19 -5 -2 -11 4 -18 19 -19 15 -1 20 3 16 14 -2 9 2 6 9 -7 11 -17 16 -20 26 -10 7 7 12 8 12 2 0 -6 7 -11 15 -11 10 0 14 6 10 15 -4 12 -3 13 10 2 12 -10 18 -10 32 1 14 12 16 12 11 -2 -5 -13 1 -16 30 -14 21 1 40 -2 43 -7 3 -5 13 -3 22 6 13 14 16 14 28 0 10 -12 14 -12 20 -2 6 9 9 9 9 1 0 -7 13 -10 36 -7 24 3 33 1 28 -7 -5 -8 -1 -8 14 0 15 8 23 7 32 -4 7 -8 17 -12 22 -9 6 4 5 9 -2 14 -7 5 2 7 21 5 24 -1 38 -9 46 -26 11 -21 19 -14 14 14 -1 4 8 3 20 -3 11 -7 26 -9 34 -7 7 3 18 0 25 -6 10 -9 14 -9 17 1 3 6 9 12 14 12 6 0 7 -4 4 -10 -3 -5 1 -10 9 -10 9 0 16 5 16 10 0 6 5 10 10 10 6 0 10 -7 10 -16 0 -9 6 -14 13 -11 6 2 20 0 31 -5 12 -7 16 -7 12 0 -3 6 -2 13 4 17 5 3 10 1 10 -4 0 -6 4 -11 10 -11 5 0 9 3 9 8 -3 18 2 26 9 14 7 -10 15 -10 36 -2 20 7 25 7 20 -1 -5 -8 1 -10 20 -7 14 3 26 1 26 -3 0 -13 43 -6 59 9 10 10 16 11 21 2 4 -7 16 -9 28 -6 29 10 60 15 117 21 28 3 1 -6 -60 -19 -60 -13 -148 -34 -194 -46 -47 -12 -93 -19 -103 -17 -10 3 -16 1 -12 -4 3 -5 -1 -9 -8 -10 -7 0 -60 -6 -117 -12 -99 -12 -169 -10 -341 8 -45 5 -66 11 -53 14 l21 6 -24 18 c-19 14 -22 15 -18 2 9 -23 -18 -28 -88 -17 -40 6 -51 10 -30 11 29 1 31 3 20 21 -8 13 -15 15 -19 8 -5 -8 -12 -6 -24 5 -10 11 -22 14 -33 9 -21 -9 -43 -9 -59 1 -17 11 -16 -1 1 -19 8 -8 29 -14 47 -14 18 0 30 -3 26 -6 -3 -3 -36 -2 -74 2 -37 5 -58 10 -45 12 12 2 22 6 22 10 0 11 -20 38 -20 28 0 -5 -7 -3 -15 4 -13 11 -15 8 -15 -14 0 -24 -3 -26 -37 -24 -38 1 -38 1 -5 5 18 2 30 9 26 14 -3 5 -10 7 -15 4 -5 -4 -9 0 -9 7 0 7 -11 13 -25 13 -19 0 -23 -4 -19 -17 5 -16 -1 -18 -43 -17 -45 2 -46 2 -13 8 25 4 36 12 37 26 1 11 0 14 -3 8 -3 -7 -17 -13 -30 -13 -14 0 -22 4 -19 10 6 10 2 11 -64 14 -20 2 -39 10 -47 21 -9 12 -14 14 -14 6 0 -9 -7 -11 -22 -6 -13 3 -29 7 -36 7 -7 1 -11 6 -9 12 3 7 -8 11 -27 10 -40 -1 -58 5 -49 20 5 8 3 8 -8 -1 -11 -9 -18 -8 -33 3 -16 11 -22 11 -35 1 -10 -8 -13 -8 -8 0 4 6 1 13 -5 16 -7 3 64 5 159 6 111 1 174 -2 178 -9z m2963 -17 c-10 -2 -26 -2 -35 0 -10 3 -2 5 17 5 19 0 27 -2 18 -5z m-3820 -38 c-1 -13 -7 -21 -13 -17 -5 4 -14 7 -19 7 -5 0 -11 7 -13 15 -3 9 -1 11 4 5 16 -20 36 -17 30 5 -3 11 -1 18 4 15 5 -4 8 -17 7 -30z m3730 28 c-10 -2 -28 -2 -40 0 -13 2 -5 4 17 4 22 1 32 -1 23 -4z m-631 -10 c-20 -2 -52 -2 -70 0 -17 2 0 4 38 4 39 0 53 -2 32 -4z m546 0 c-13 -2 -35 -2 -50 0 -16 2 -5 4 22 4 28 0 40 -2 28 -4z m-755 -10 c-15 -2 -42 -2 -60 0 -18 2 -6 4 27 4 33 0 48 -2 33 -4z m365 0 c-13 -2 -35 -2 -50 0 -16 2 -5 4 22 4 28 0 40 -2 28 -4z m245 0 c-21 -2 -55 -2 -75 0 -21 2 -4 4 37 4 41 0 58 -2 38 -4z m-755 -10 c-13 -2 -35 -2 -50 0 -16 2 -5 4 22 4 28 0 40 -2 28 -4z m-2634 -20 c-13 -14 -9 -16 15 -7 9 3 14 9 11 13 -2 4 27 7 66 7 38 0 69 -3 69 -6 0 -4 7 -7 15 -7 8 0 15 4 15 9 0 4 5 8 11 8 5 0 7 -5 4 -10 -3 -6 1 -13 9 -16 9 -3 14 -9 11 -13 -2 -4 2 -8 10 -8 19 0 19 2 0 20 -13 13 -13 16 0 21 8 3 14 2 14 -2 -3 -19 2 -23 17 -12 8 8 14 9 13 4 -3 -20 2 -32 17 -38 14 -5 15 -4 4 9 -15 18 0 20 19 3 10 -9 12 -9 7 -1 -7 13 12 11 48 -3 15 -6 18 -4 12 7 -5 9 -3 9 6 -2 11 -13 42 -16 173 -18 88 -1 162 -5 165 -8 3 -3 -155 -3 -350 1 -412 7 -377 6 -412 13 -30 5 -39 22 -12 19 9 0 19 6 22 14 5 13 3 13 -11 1 -10 -7 -17 -9 -17 -3 0 6 -11 9 -25 8 -13 -2 -22 1 -19 6 3 4 28 8 55 7 40 -2 47 -5 38 -16z m2514 10 c-13 -2 -35 -2 -50 0 -16 2 -5 4 22 4 28 0 40 -2 28 -4z m-105 -10 c-10 -2 -28 -2 -40 0 -13 2 -5 4 17 4 22 1 32 -1 23 -4z m-90 -10 c-10 -2 -28 -2 -40 0 -13 2 -5 4 17 4 22 1 32 -1 23 -4z m-80 -10 c-10 -2 -26 -2 -35 0 -10 3 -2 5 17 5 19 0 27 -2 18 -5z m-4054 -22 c24 2 42 1 39 -3 -2 -5 -104 -8 -225 -8 -122 0 -219 2 -217 4 3 3 79 6 171 8 112 1 165 6 160 13 -3 5 2 4 11 -4 10 -8 34 -12 61 -10z m-973 -10 c0 10 2 10 6 2 3 -9 10 -10 22 -4 10 6 23 6 32 0 20 -12 32 -11 23 3 -5 7 -3 8 7 2 20 -12 239 -12 232 1 -3 6 -1 5 6 -1 11 -10 167 -10 214 0 9 2 17 0 17 -5 0 -5 -26 -9 -57 -9 -32 0 -134 -9 -228 -20 -213 -25 -257 -25 -474 0 -97 11 -198 21 -226 23 -27 3 13 3 90 2 77 -1 166 1 198 4 32 4 60 5 62 2 3 -2 16 -5 30 -6 19 0 24 3 20 15 -3 9 1 8 10 -4 11 -15 15 -16 16 -5z m1137 12 c-16 -2 -40 -2 -55 0 -16 2 -3 4 27 4 30 0 43 -2 28 -4z m-1675 -20 c-13 -2 -35 -2 -50 0 -16 2 -5 4 22 4 28 0 40 -2 28 -4z m1150 -42 c4 0 7 -7 7 -15 0 -8 6 -16 13 -19 6 -2 9 -8 5 -12 -4 -4 -14 -2 -22 5 -13 10 -19 9 -31 -4 -18 -17 -75 -22 -75 -6 0 6 8 10 19 10 26 0 44 23 29 38 -10 10 3 11 55 3z m467 -159 c0 -12 -51 -56 -74 -65 -13 -5 -17 -3 -13 7 3 7 0 19 -6 25 -8 8 -5 11 11 12 37 2 41 4 54 17 14 14 28 16 28 4z m338 -62 c7 -11 8 -20 3 -20 -6 0 -13 5 -17 11 -4 7 -9 7 -13 1 -7 -11 -51 -26 -51 -18 0 12 36 44 50 45 8 1 21 -8 28 -19z m-898 -94 c0 -16 -67 -86 -82 -86 -6 0 -8 7 -4 15 3 8 1 15 -4 15 -22 0 -8 19 19 25 16 3 37 15 47 26 20 23 24 23 24 5z"/>
<path d="M4774 1474 c9 -19 18 -24 46 -23 28 0 31 2 15 8 -11 5 -23 7 -27 4 -5 -2 -8 0 -8 4 0 5 -8 13 -19 20 -17 11 -18 10 -7 -13z"/>
<path d="M5006 1472 c-3 -6 0 -12 6 -15 7 -2 10 -8 6 -12 -4 -4 -19 0 -34 10 -15 9 -24 12 -20 7 4 -6 -2 -15 -11 -21 -15 -8 -11 -10 17 -10 19 0 67 -3 105 -6 67 -6 69 -6 41 9 -15 9 -33 13 -40 9 -22 -14 -34 -11 -31 8 2 12 0 17 -7 13 -5 -4 -14 -1 -18 6 -5 8 -10 9 -14 2z"/>
<path d="M3713 1545 c0 -7 15 -11 36 -10 20 1 41 -2 47 -7 6 -4 11 -2 11 7 0 7 -3 14 -6 13 -3 0 -8 1 -11 2 -18 8 -77 4 -77 -5z"/>
<path d="M368 1720 l-33 -29 41 -1 c35 0 100 29 67 30 -7 0 -13 7 -13 15 0 24 -27 17 -62 -15z"/>
</g>
<g id="layer104" fill="#ff8040" stroke="none">
<path d="M3 224 c-13 -35 4 -41 128 -47 82 -4 127 -3 136 5 16 13 87 3 173 -24 19 -6 125 -14 235 -19 241 -9 283 -13 298 -28 13 -13 57 -15 57 -2 0 18 104 31 140 18 60 -22 250 -48 250 -34 0 5 6 5 13 -1 7 -6 59 -8 137 -5 69 3 167 6 218 5 50 0 92 4 92 8 0 4 12 8 28 8 15 1 88 6 162 12 217 16 304 19 700 20 206 1 366 5 355 9 -11 5 -23 7 -27 4 -5 -2 -14 -1 -20 4 -7 4 -26 9 -43 10 -25 1 -172 8 -352 17 -22 1 -76 -1 -119 -5 -50 -5 -83 -4 -91 2 -7 6 -17 8 -22 4 -6 -3 -88 -8 -183 -11 -95 -3 -177 -9 -183 -12 -28 -18 -161 -33 -190 -22 -15 6 -27 6 -30 0 -4 -6 -36 -10 -73 -9 -81 1 -103 -2 -96 -12 2 -4 0 -10 -6 -14 -5 -3 -10 -2 -10 3 0 12 -69 10 -88 -1 -7 -5 -12 -3 -12 3 0 7 -6 10 -12 7 -7 -2 -38 0 -68 5 -30 5 -98 11 -150 13 -52 2 -95 4 -95 5 0 1 -36 3 -80 5 -44 1 -93 8 -110 15 -43 18 -143 20 -160 3 -17 -17 -46 -16 -112 1 -29 8 -53 12 -53 10 0 -2 -12 2 -27 8 -16 6 -48 14 -73 18 -25 4 -70 13 -101 19 -46 9 -65 9 -100 -3 -50 -16 -75 -15 -142 8 -61 20 -286 20 -294 0z"/>
<path d="M3170 133 c0 -5 6 -10 13 -10 6 -1 36 -6 66 -12 29 -6 65 -11 80 -10 26 0 26 0 3 10 -49 19 -162 35 -162 22z"/>
<path d="M3515 120 c-3 -5 -12 -7 -20 -3 -9 3 -15 -1 -15 -11 0 -14 -9 -18 -40 -18 -3 -1 -17 2 -32 6 -16 3 -28 2 -28 -3 0 -5 15 -11 33 -14 17 -3 50 -10 72 -16 22 -7 54 -14 70 -17 17 -3 32 -8 34 -10 2 -2 12 1 21 6 29 16 71 13 147 -9 82 -24 124 -28 106 -10 -7 7 -23 13 -38 14 -14 2 -54 17 -88 33 -35 17 -93 38 -131 46 -79 19 -83 19 -91 6z"/>
<path d="M3900 9 c-22 -6 -20 -7 13 -8 38 -1 47 3 25 11 -7 3 -24 1 -38 -3z"/>
</g>
<g id="layer105" fill="#ffe533" stroke="none">
<path d="M7693 1605 c0 -22 2 -30 4 -17 2 12 2 30 0 40 -3 9 -5 -1 -4 -23z"/>
<path d="M7723 1605 c0 -22 2 -30 4 -17 2 12 2 30 0 40 -3 9 -5 -1 -4 -23z"/>
<path d="M7499 1615 c-10 -9 -324 -45 -487 -55 -114 -8 -207 -8 -292 -1 -180 15 -678 -18 -880 -58 l-45 -9 39 -1 c35 -1 37 -3 25 -18 -13 -16 -12 -17 3 -4 10 7 15 17 12 22 -3 5 0 9 5 9 6 0 11 -8 12 -17 0 -15 2 -15 9 2 7 16 9 17 9 3 1 -9 -4 -20 -9 -23 -8 -5 -8 -11 0 -20 6 -8 7 -16 2 -19 -5 -3 -8 -18 -6 -33 4 -27 3 -27 -4 -3 -8 25 -8 25 -21 -10 -8 -19 -13 -39 -12 -43 1 -5 -3 -6 -9 -2 -5 3 -10 -2 -10 -12 0 -15 -2 -15 -9 -3 -7 10 -4 18 10 28 10 7 19 21 19 30 0 11 -9 5 -30 -18 -16 -19 -29 -39 -29 -45 -1 -5 4 -3 9 5 9 13 10 13 11 0 1 -8 1 -19 0 -23 -1 -5 3 -6 9 -2 6 4 22 -4 36 -18 14 -14 21 -28 16 -31 -10 -6 -26 9 -35 34 -4 12 -6 12 -6 -2 -1 -9 4 -20 9 -23 8 -5 7 -12 -2 -23 -11 -13 -11 -14 2 -7 8 5 24 10 36 11 27 1 27 -24 0 -56 l-21 -25 23 19 c25 22 30 11 6 -15 -14 -15 -13 -20 5 -50 16 -26 18 -36 8 -48 -10 -14 -10 -14 5 -3 10 8 14 20 11 30 -7 18 -5 17 17 -12 8 -11 10 -17 5 -14 -6 4 -17 -3 -25 -15 -12 -20 -12 -21 4 -8 9 8 19 11 23 8 3 -4 13 -1 22 5 9 7 13 8 8 3 -4 -4 0 -17 10 -27 15 -17 15 -18 -1 -18 -10 0 -14 5 -10 12 5 7 3 8 -6 3 -8 -5 -11 -4 -6 3 7 12 -19 10 -31 -2 -4 -4 -1 -6 7 -4 8 2 14 -3 12 -10 -1 -8 1 -11 6 -8 11 7 47 -19 47 -33 0 -6 5 -10 10 -8 6 1 8 7 7 12 -10 26 -10 45 -1 40 5 -4 9 -15 9 -26 0 -13 4 -18 13 -13 6 4 3 -2 -7 -14 -16 -18 -22 -20 -34 -9 -13 10 -15 9 -9 -6 5 -12 3 -16 -5 -11 -8 5 -9 1 -4 -12 6 -15 5 -16 -5 -7 -9 9 -8 17 4 37 14 21 15 25 1 30 -8 3 -12 2 -9 -4 3 -6 2 -10 -4 -10 -5 0 -12 6 -15 13 -2 6 -3 -6 -1 -28 4 -36 3 -38 -10 -21 -13 18 -14 18 -12 -2 0 -11 4 -19 8 -16 4 2 10 0 13 -5 8 -12 30 -8 52 9 16 12 17 12 7 0 -22 -24 -14 -34 9 -14 19 16 20 16 9 1 -12 -15 -11 -20 4 -37 15 -16 21 -18 34 -7 14 10 14 10 4 -4 -7 -9 -11 -18 -8 -20 2 -3 -6 -6 -18 -6 -15 -2 -18 0 -8 6 7 5 9 11 5 13 -5 3 -17 -3 -26 -13 -14 -15 -14 -18 -2 -23 8 -3 13 -2 10 3 -4 5 3 7 14 4 11 -3 20 -9 20 -14 0 -5 -7 -5 -17 -2 -12 5 -14 3 -8 -8 7 -12 6 -12 -7 -1 -21 17 -44 -7 -25 -28 10 -12 9 -12 -6 -1 -13 11 -15 17 -6 27 9 11 8 14 0 14 -7 0 -9 5 -5 13 4 7 3 9 -2 4 -5 -5 -10 -13 -10 -18 -1 -5 -2 -10 -4 -11 -6 -9 -7 -37 0 -33 4 3 14 -3 21 -12 12 -14 12 -16 -1 -9 -8 4 -2 -4 13 -18 32 -30 56 -35 37 -8 -7 9 8 -5 33 -33 25 -27 43 -53 40 -58 -2 -4 -12 1 -21 10 -9 10 -14 14 -9 9 12 -17 8 -29 -7 -17 -10 9 -16 8 -25 -3 -10 -11 -8 -16 6 -24 10 -6 17 -13 16 -16 -2 -3 0 -5 4 -3 5 1 6 9 5 17 -2 10 2 8 11 -5 9 -11 13 -24 10 -29 -4 -5 -1 -6 6 -2 6 4 9 11 6 16 -3 4 3 7 12 5 10 -1 25 2 33 8 12 9 13 9 3 -3 -17 -19 -16 -35 1 -21 10 8 16 8 25 -2 6 -8 7 -18 3 -23 -4 -4 0 -3 8 3 13 10 16 9 16 -6 0 -11 -8 -17 -22 -17 -14 0 -20 5 -17 13 3 7 -2 13 -12 13 -9 0 -14 -4 -11 -8 2 -4 -4 -9 -15 -9 -18 -2 -19 0 -7 14 12 15 11 15 -10 2 -33 -20 -22 -32 32 -35 27 -2 55 -5 62 -8 8 -3 14 -1 14 5 0 6 6 7 13 2 16 -10 37 -10 65 -1 15 5 21 4 17 -2 -6 -10 21 -7 62 5 7 2 14 1 17 -3 5 -9 215 -6 286 3 25 3 63 6 84 5 21 0 46 6 54 13 13 10 14 9 7 -2 -6 -11 -3 -13 16 -7 39 11 119 12 119 1 0 -7 3 -7 8 0 9 12 14 13 83 16 30 1 64 6 77 11 16 5 21 5 16 -3 -4 -8 1 -9 17 -4 26 8 48 12 92 14 15 0 27 6 27 12 0 5 -6 7 -12 3 -7 -4 -10 -3 -5 1 4 5 -1 17 -10 27 -16 18 -16 18 0 12 10 -3 25 0 34 7 14 12 16 12 8 0 -6 -10 -4 -12 4 -7 7 5 10 13 8 20 -3 7 5 13 19 14 18 1 22 -2 17 -16 -5 -14 -3 -14 9 2 10 12 20 16 28 11 10 -6 12 -4 7 7 -6 16 15 19 29 6 10 -11 42 14 37 29 -3 7 -9 10 -14 7 -5 -3 -7 -9 -4 -14 3 -5 1 -12 -5 -15 -6 -4 -9 -1 -8 7 2 9 -8 13 -29 12 -18 0 -30 3 -27 8 3 4 -2 11 -10 14 -9 3 -16 10 -16 16 0 5 5 6 12 2 7 -5 8 -3 3 5 -13 21 -29 -4 -16 -26 7 -15 7 -20 -4 -20 -8 0 -13 5 -12 10 1 5 -4 12 -12 15 -8 2 -11 0 -8 -5 3 -5 0 -10 -7 -10 -8 0 -13 11 -13 26 0 14 2 20 4 13 4 -10 8 -10 19 -1 8 6 14 9 14 5 0 -4 11 1 24 9 18 12 26 13 32 4 5 -8 3 -9 -6 -4 -9 5 -11 4 -6 -4 6 -8 12 -9 20 -2 7 6 16 9 19 6 4 -3 5 -2 3 1 -2 3 4 14 15 25 11 11 17 25 13 31 -4 7 -3 8 4 4 6 -4 9 -13 6 -20 -3 -8 -1 -17 5 -21 7 -4 8 0 4 11 -5 12 -3 15 6 9 10 -6 11 -3 1 14 -7 14 -8 27 -2 34 5 7 8 23 6 36 -3 13 1 31 8 40 10 13 10 14 -2 4 -9 -9 -17 -9 -26 -2 -14 12 -7 42 7 33 5 -3 6 -10 3 -16 -4 -7 -2 -8 5 -4 9 6 9 11 0 23 -11 13 -14 13 -26 -3 -7 -9 -10 -21 -6 -27 3 -6 1 -7 -5 -3 -6 4 -9 13 -6 21 3 8 0 13 -8 11 -23 -3 -39 -17 -32 -28 5 -7 2 -8 -5 -4 -18 11 16 46 40 41 20 -4 22 16 4 45 -7 13 -6 13 7 2 11 -9 18 -10 23 -2 3 5 3 10 -1 10 -3 0 -2 6 4 13 10 12 -1 57 -14 57 -3 0 -3 -7 0 -16 3 -8 2 -12 -4 -9 -6 3 -10 2 -10 -4 0 -5 5 -11 12 -13 7 -3 5 -7 -6 -11 -9 -4 -15 -3 -12 1 2 4 1 14 -4 22 -5 8 -4 22 1 32 8 14 14 16 28 8 26 -13 52 18 57 67 3 35 2 37 -11 19 -8 -11 -15 -14 -15 -7 0 7 -5 9 -12 5 -8 -4 -10 -3 -5 2 5 5 13 9 19 9 6 0 12 7 14 15 1 8 5 23 9 32 5 14 2 16 -15 13 -21 -4 -21 -3 -6 14 24 26 19 37 -6 15 -23 -19 -23 -19 -5 2 9 11 14 24 10 29 -5 4 -3 5 4 1 6 -3 14 -2 18 4 4 6 11 7 17 4 7 -4 8 -2 4 5 -4 6 -12 9 -17 6 -5 -4 -9 -1 -9 4 0 6 5 11 11 11 6 0 9 9 6 19 -3 13 0 18 8 15 7 -3 16 0 20 5 3 6 10 9 15 6 5 -3 12 0 16 6 4 8 3 9 -4 5 -7 -4 -12 -3 -12 2 0 6 6 12 14 15 8 3 14 15 13 26 0 11 -4 18 -9 15 -8 -5 -34 36 -30 49 1 5 -2 6 -7 3 -5 -3 -18 13 -30 37 -12 23 -21 35 -21 27 0 -9 7 -25 15 -37 10 -14 12 -24 5 -28 -5 -3 -10 -1 -10 5 0 6 -4 8 -10 5 -6 -4 -7 1 -3 11 4 10 2 15 -3 11 -7 -4 -9 6 -6 25 4 23 2 29 -8 23 -8 -5 -11 -4 -6 3 3 6 15 9 26 7 11 -2 20 0 20 5 0 5 10 11 23 13 20 4 20 4 -4 6 -14 0 -28 -1 -30 -4z m59 -155 c24 -33 27 -40 12 -40 -5 0 -9 6 -7 13 1 6 -4 11 -10 10 -7 -2 -12 0 -12 5 3 19 -2 33 -10 27 -5 -3 -12 -1 -16 5 -15 24 23 7 43 -20z m-1632 -270 c-2 -17 1 -33 5 -36 5 -3 7 -10 3 -15 -3 -6 -12 -5 -22 3 -13 11 -14 11 -8 0 4 -7 19 -18 33 -23 14 -5 23 -12 19 -16 -3 -3 0 -13 6 -22 7 -9 0 -5 -15 8 -15 14 -27 20 -27 16 0 -5 -7 1 -16 13 -15 21 -15 25 0 41 9 10 16 22 15 27 -2 15 1 34 6 34 2 0 3 -14 1 -30z m1564 -70 c-16 -29 -28 -32 -40 -10 -10 20 -10 21 8 11 16 -8 21 -7 26 5 4 11 2 15 -7 11 -8 -3 -14 1 -14 8 0 10 5 11 19 4 14 -8 16 -14 8 -29z m-32 -230 c3 -7 0 -10 -6 -6 -6 3 -13 2 -17 -4 -4 -6 -11 -5 -19 3 -9 8 -10 14 -4 18 16 10 41 4 46 -11z m-1345 -213 c18 11 47 11 54 0 3 -6 1 -7 -5 -3 -6 3 -14 1 -18 -5 -4 -8 -9 -7 -16 2 -8 11 -9 11 -5 -1 2 -10 16 -15 40 -14 44 0 39 -10 -6 -12 -32 -2 -77 28 -77 50 0 6 5 3 11 -7 6 -10 15 -14 22 -10z"/>
<path d="M7516 1571 c-3 -5 3 -20 15 -32 l20 -24 -15 26 c-9 14 -13 29 -9 32 3 4 4 7 0 7 -3 0 -8 -4 -11 -9z"/>
<path d="M5869 1453 c-8 -10 -9 -14 -2 -10 6 4 14 3 18 -3 5 -9 -7 -14 -27 -11 -4 0 -5 -6 -2 -13 5 -12 9 -12 24 2 13 10 16 20 10 27 -6 7 -7 15 -3 18 3 4 4 7 1 7 -3 0 -12 -8 -19 -17z"/>
<path d="M7506 1289 c3 -6 0 -17 -7 -25 -10 -12 -10 -15 2 -12 10 2 13 -6 12 -27 -2 -29 -2 -30 8 -5 5 13 7 36 4 49 -6 22 -5 23 12 11 15 -12 16 -12 6 0 -14 16 -46 23 -37 9z"/>
<path d="M7525 1190 c-3 -5 -3 -10 2 -10 4 0 3 -4 -3 -8 -7 -4 -8 -15 -3 -27 l8 -20 1 20 c1 11 3 28 5 38 4 19 -1 22 -10 7z"/>
<path d="M7474 1066 c-4 -9 -4 -20 0 -23 3 -3 1 -12 -5 -20 -6 -7 -8 -13 -4 -13 5 0 0 -9 -9 -19 -16 -17 -16 -19 -2 -17 17 2 46 26 32 26 -5 0 -2 10 7 23 12 19 13 26 1 41 -12 18 -14 18 -20 2z"/>
<path d="M7486 892 c-3 -5 -3 -17 -2 -28 2 -10 -1 -25 -7 -32 -7 -9 -6 -17 4 -28 13 -12 15 -11 14 12 0 16 6 29 15 31 13 4 13 3 0 -7 -12 -9 -12 -11 -1 -8 17 5 22 30 10 49 -7 11 -9 9 -9 -6 0 -16 -2 -17 -9 -5 -6 8 -7 18 -5 22 3 4 3 8 0 8 -3 0 -7 -4 -10 -8z"/>
<path d="M5984 869 c-3 -5 0 -8 8 -7 7 2 12 -3 10 -11 -3 -12 0 -12 13 -1 8 7 13 15 10 18 -10 10 -35 10 -41 1z"/>
<path d="M5947 823 c-4 -3 -7 -20 -7 -37 l0 -31 13 25 c7 14 9 27 5 28 -4 2 -6 8 -2 13 6 10 0 12 -9 2z"/>
<path d="M6004 620 c0 -16 3 -27 8 -24 4 3 8 0 8 -7 0 -16 11 -5 14 13 1 7 5 19 10 26 4 7 5 16 2 19 -3 4 -6 1 -6 -6 0 -8 -5 -9 -18 -2 -16 8 -18 6 -18 -19z"/>
<path d="M7321 603 c-1 -7 -8 -10 -16 -7 -8 4 -15 1 -15 -5 0 -6 5 -11 11 -11 5 0 7 -5 3 -11 -3 -6 8 -3 25 5 23 13 31 13 31 4 0 -10 2 -10 9 1 5 8 14 10 22 6 8 -5 7 -1 -2 10 -13 13 -21 15 -37 6 -15 -8 -22 -8 -25 2 -4 9 -6 9 -6 0z"/>
<path d="M332 69 c-30 -17 -41 -18 -92 -9 -31 6 -99 13 -149 15 l-91 5 0 -40 0 -40 348 1 c217 1 323 4 282 9 -36 4 -86 17 -110 29 -41 19 -138 52 -150 50 -3 0 -20 -9 -38 -20z"/>
<path d="M2465 9 c-16 -4 37 -7 119 -8 82 0 147 2 144 5 -8 8 -228 11 -263 3z"/>
<path d="M2863 3 c32 -2 81 -2 110 0 29 2 3 3 -58 3 -60 0 -84 -1 -52 -3z"/>
</g>


</svg>